<svg width="39" height="40" viewBox="0 0 39 40" fill="none" xmlns="http://www.w3.org/2000/svg">
<path d="M31.1667 13.5633C31.1667 10.4735 29.9376 7.51015 27.7495 5.32528C25.5616 3.1404 22.5942 1.91296 19.5 1.91296C16.4058 1.91296 13.4383 3.1404 11.2504 5.32528C9.06249 7.51015 7.83333 10.4735 7.83333 13.5633C7.83333 27.1555 2 31.0389 2 31.0389H37C37 31.0389 31.1667 27.1555 31.1667 13.5633Z" stroke="black" stroke-width="3" stroke-linecap="round" stroke-linejoin="round"/>
<path d="M22.8638 36.656C22.5219 37.2078 22.0313 37.6658 21.4408 37.984C20.8505 38.3024 20.1812 38.47 19.4999 38.47C18.8185 38.47 18.1493 38.3024 17.5589 37.984C16.9686 37.6658 16.4778 37.2078 16.136 36.656" stroke="black" stroke-width="3" stroke-linecap="round" stroke-linejoin="round"/>
</svg>
