<svg width="39" height="41" viewBox="0 0 39 41" fill="none" xmlns="http://www.w3.org/2000/svg">
<path d="M19.5 1.95746C9.83501 1.95746 2 10.141 2 20.236C2 30.3309 9.83501 38.5145 19.5 38.5145C29.1649 38.5145 37 30.3309 37 20.236C37 10.141 29.1649 1.95746 19.5 1.95746Z" stroke="black" stroke-width="3" stroke-linecap="round" stroke-linejoin="round"/>
<path d="M5.97412 31.835C5.97412 31.835 9.87491 26.6335 19.4999 26.6335C29.1249 26.6335 33.0258 31.835 33.0258 31.835" stroke="black" stroke-width="3" stroke-linecap="round" stroke-linejoin="round"/>
<path d="M19.5 20.236C22.3996 20.236 24.75 17.781 24.75 14.7524C24.75 11.7239 22.3996 9.26886 19.5 9.26886C16.6004 9.26886 14.25 11.7239 14.25 14.7524C14.25 17.781 16.6004 20.236 19.5 20.236Z" stroke="black" stroke-width="3" stroke-linecap="round" stroke-linejoin="round"/>
</svg>
